<mxfile host="app.diagrams.net" modified="2022-01-08T07:02:13.030Z" agent="5.0 (Macintosh; Intel Mac OS X 10_15_7) AppleWebKit/537.36 (KHTML, like Gecko) Chrome/97.0.4692.71 Safari/537.36" etag="6UppDuYjGo3I-X2L8vs9" version="16.2.3" type="github">
  <diagram id="21XVajsXqath_ERdmZyK" name="Page-1">
    <mxGraphModel dx="946" dy="657" grid="1" gridSize="10" guides="1" tooltips="1" connect="1" arrows="1" fold="1" page="1" pageScale="1" pageWidth="827" pageHeight="1169" math="0" shadow="0">
      <root>
        <mxCell id="0" />
        <mxCell id="1" parent="0" />
      </root>
    </mxGraphModel>
  </diagram>
</mxfile>
